<?xml version="1.0" encoding="UTF-8" standalone="no"?>
<svg
   viewBox="0 0 352 352"
   version="1.1"
   id="svg2"
   sodipodi:docname="wb_icon.svg"
   width="352"
   height="352"
   inkscape:version="1.3.1 (9b9bdc1480, 2023-11-25, custom)"
   xmlns:inkscape="http://www.inkscape.org/namespaces/inkscape"
   xmlns:sodipodi="http://sodipodi.sourceforge.net/DTD/sodipodi-0.dtd"
   xmlns="http://www.w3.org/2000/svg"
   xmlns:svg="http://www.w3.org/2000/svg">
  <defs
     id="defs2" />
  <sodipodi:namedview
     id="namedview2"
     pagecolor="#ffffff"
     bordercolor="#000000"
     borderopacity="0.25"
     inkscape:showpageshadow="2"
     inkscape:pageopacity="0.0"
     inkscape:pagecheckerboard="0"
     inkscape:deskcolor="#d1d1d1"
     inkscape:zoom="1.0290071"
     inkscape:cx="267.24791"
     inkscape:cy="115.15956"
     inkscape:window-width="1452"
     inkscape:window-height="1214"
     inkscape:window-x="26"
     inkscape:window-y="23"
     inkscape:window-maximized="0"
     inkscape:current-layer="svg2" />
  <path
     d="M 156.8,112 C 143,112 129.7,106.5 119.9,96.7 L 80,57.4 c -4.1,-4.1 -5.3,-10.3 -3.1,-15.7 2.2,-5.4 7.5,-8.9 13.3,-8.9 h 35.5 c 3.1,0 5.6,-2.5 5.6,-5.6 L 131.2,6.6 C 131.2,3.5 128.7,1 125.6,1 H 36.2 C 16.7,1 1,16.7 1,36.2 v 88.7 c 0,3.1 2.5,5.6 5.6,5.6 H 28 c 3.1,0 5.6,-2.5 5.6,-5.6 L 32.9,90.2 c 0,-5.8 3.5,-11.1 8.9,-13.3 5.4,-2.3 11.6,-1 15.7,3.1 l 39.2,39.1 c 9.8,9.8 15.3,23.1 15.3,36.9 v 40 c 0,13.9 -5.5,27.1 -15.3,36.9 L 57.4,272 c -4.1,4.1 -10.3,5.3 -15.7,3.1 -5.4,-2.2 -8.9,-7.5 -8.9,-13.3 l 0.8,-35.5 c 0,-3.1 -2.5,-5.5 -5.6,-5.5 H 6.6 c -3.1,0 -5.6,2.5 -5.6,5.6 v 89.4 c 0,19.4 15.7,35.1 35.1,35.1 l 89.6,0.1 c 3.1,0 5.6,-2.5 5.6,-5.6 l -0.1,-20.7 c 0,-3.1 -2.5,-5.6 -5.6,-5.6 H 90.2 c -5.8,0 -11.1,-3.5 -13.3,-8.9 -2.3,-5.4 -1,-11.6 3.1,-15.7 l 39.9,-39.2 C 129.7,245.5 143,240 156.8,240 H 196 c 13.8,0 27.1,5.5 36.9,15.3 l 39.9,39.3 c 4.1,4.1 5.3,10.3 3.1,15.7 -2.2,5.4 -7.5,8.9 -13.3,8.9 h -35.5 c -3.1,0 -5.6,2.5 -5.6,5.6 v 20.6 c 0,3.1 2.5,5.6 5.6,5.6 h 88.7 c 19.4,0 35.1,-15.7 35.2,-35.1 v -89.6 c 0,-3.1 -2.5,-5.5 -5.6,-5.5 h -20.7 c -3.1,0 -5.6,2.5 -5.6,5.6 v 35.4 c 0,5.8 -3.5,11.1 -8.9,13.3 -5.4,2.3 -11.6,1 -15.7,-3.1 L 255.3,232.9 C 245.5,223.1 240,209.8 240,196 v -40 c 0,-13.8 5.5,-27.1 15.3,-36.9 L 294.6,80 c 4.1,-4.1 10.3,-5.3 15.7,-3.1 5.4,2.2 8.9,7.5 8.9,13.3 l 0,34.7 c 0,3.1 2.5,5.6 5.6,5.6 h 20.6 c 3.1,0 5.6,-2.5 5.6,-5.6 V 36.2 C 351,16.8 335.3,1.1 315.9,1 h -88.8 c -3.1,0 -5.6,2.5 -5.6,5.6 v 20.7 c 0,3.1 2.5,5.6 5.6,5.6 h 35.5 c 5.8,0 11.1,3.5 13.3,8.9 2.3,5.4 1,11.6 -3.1,15.7 L 232.9,96.7 C 223.1,106.5 209.8,112 196,112 m 0.3,0 h -39.9 m -17.8,64 c 0,20.6 16.7,37.4 37.4,37.4 20.6,0 37.4,-16.7 37.4,-37.4 0,-20.6 -16.7,-37.4 -37.4,-37.4 -20.6,0 -37.4,16.8 -37.4,37.4"
     fill="none"
     stroke="#16417f"
     stroke-width="2"
     stroke-linecap="round"
     stroke-linejoin="round"
     stroke-miterlimit="10"
     id="path2"
     sodipodi:nodetypes="cccscccccccccccccccccccscccccccccccccccccccscccccccccccccccccccscccccccccccccccccccsssc"
     style="fill:#333333;fill-opacity:1;stroke:#696969;stroke-opacity:1" />
</svg>
